<svg width="48" height="69" viewBox="0 0 48 69" fill="none" xmlns="http://www.w3.org/2000/svg">
<path d="M44.1593 0.000434822H18.4384C17.1972 0.000374138 15.9929 0.421899 15.0235 1.19572C14.0541 1.96953 13.3773 3.04959 13.1043 4.25834L0.108203 61.806C-0.0335548 62.4337 -0.0360539 63.0847 0.100883 63.7135C0.237819 64.3422 0.510875 64.9335 0.900905 65.4457C1.29093 65.958 1.78849 66.3789 2.3587 66.6789C2.9289 66.9789 3.55793 67.1508 4.2017 67.1824L30.6431 68.483C32.059 68.5526 33.4518 68.1056 34.5618 67.2253C35.6718 66.3451 36.423 65.0917 36.6753 63.6992L44.048 23.0125L44.5964 23.169L46.0075 15.4573L45.443 15.3164L47.5008 3.95922C47.589 3.47275 47.5686 2.97285 47.4411 2.49516C47.3135 2.01748 47.082 1.57376 46.7629 1.19565C46.4439 0.817545 46.0452 0.514358 45.5954 0.307706C45.1455 0.101054 44.6555 -0.00397201 44.1603 0.000114855L44.1593 0.000434822Z" fill="#3F3D56"/>
<path d="M21.8237 1.2406H18.8216C17.9594 1.24061 17.1231 1.53499 16.4515 2.07488C15.78 2.61476 15.3136 3.36768 15.1298 4.20865L2.65496 61.2867C2.5831 61.6154 2.58315 61.9556 2.65511 62.2842C2.72706 62.6128 2.86923 62.9221 3.07189 63.1908C3.27455 63.4595 3.53293 63.6814 3.82938 63.8413C4.12583 64.0012 4.45335 64.0953 4.78958 64.1172L31.1451 65.8417C31.8886 65.8904 32.6241 65.664 33.2111 65.2059C33.7981 64.7477 34.1956 64.0898 34.3277 63.3577L44.9725 4.36199C45.0414 3.98015 45.0255 3.58787 44.9259 3.21283C44.8263 2.8378 44.6456 2.48914 44.3963 2.19147C44.147 1.89379 43.8353 1.65436 43.4833 1.49006C43.1312 1.32577 42.7473 1.24061 42.3586 1.2406H39.5106C39.2349 1.24059 38.9669 1.33131 38.7481 1.4987C38.5293 1.66609 38.3719 1.90083 38.3002 2.16656C38.2369 2.40124 38.0979 2.60853 37.9046 2.75633C37.7113 2.90413 37.4747 2.98419 37.2312 2.9841H23.7101C23.2335 2.98409 22.7744 2.80452 22.4247 2.48128C22.075 2.15805 21.8603 1.71497 21.8237 1.2406Z" fill="white"/>
<path d="M36.3943 41.1431C36.4455 41.1448 36.4957 41.1282 36.5357 41.0961C36.5756 41.064 36.6027 41.0186 36.6119 40.9683L42.4403 8.85613C42.4458 8.82561 42.4447 8.79425 42.437 8.76419C42.4293 8.73414 42.4152 8.70609 42.3957 8.68197C42.3763 8.65804 42.3519 8.63867 42.3242 8.62522C42.2965 8.61177 42.2662 8.60459 42.2353 8.60418L15.7187 8.2915H15.7162C15.6681 8.29191 15.6215 8.30863 15.5841 8.33891C15.5467 8.36919 15.5208 8.41125 15.5104 8.45819L8.63955 39.5281C8.63284 39.5584 8.63276 39.5898 8.63933 39.6202C8.6459 39.6505 8.65895 39.6791 8.6776 39.7039C8.69608 39.7286 8.71976 39.7489 8.74698 39.7633C8.77419 39.7778 8.80427 39.7861 8.83506 39.7877L36.3943 41.1431Z" fill="#E6E6E6"/>
<path d="M13.3826 43.2185C13.3585 43.2185 13.3351 43.2267 13.3162 43.2417C13.2974 43.2566 13.2841 43.2776 13.2786 43.301L13.0303 44.3634C13.0268 44.3785 13.0266 44.3941 13.0297 44.4092C13.0328 44.4243 13.0391 44.4385 13.0482 44.4509C13.0574 44.4634 13.0691 44.4736 13.0826 44.4811C13.0961 44.4886 13.1111 44.493 13.1265 44.4942L27.1546 45.4895C27.1806 45.4911 27.2063 45.4833 27.227 45.4675C27.2477 45.4517 27.262 45.4289 27.2671 45.4034L27.5059 44.1741C27.5088 44.1592 27.5085 44.1439 27.5049 44.1291C27.5014 44.1143 27.4948 44.1005 27.4854 44.0885C27.4761 44.0764 27.4643 44.0666 27.4508 44.0595C27.4374 44.0524 27.4226 44.0483 27.4074 44.0474L13.3892 43.2187L13.3826 43.2185Z" fill="#E6E6E6"/>
<path d="M30.4264 49.4373C30.4517 49.4393 30.4768 49.4323 30.4974 49.4175C30.518 49.4026 30.5326 49.381 30.5387 49.3564L30.8427 48.1246C30.8464 48.1095 30.8468 48.0938 30.8438 48.0785C30.8408 48.0632 30.8345 48.0488 30.8254 48.0362C30.8162 48.0237 30.8044 48.0133 30.7908 48.0057C30.7772 47.9982 30.7621 47.9937 30.7465 47.9926L12.8318 46.7418C12.8075 46.7399 12.7833 46.7464 12.7632 46.7602C12.7432 46.7741 12.7285 46.7945 12.7218 46.8179L12.4059 47.8824C12.4014 47.8976 12.4004 47.9136 12.4029 47.9293C12.4053 47.9449 12.4113 47.9599 12.4203 47.9729C12.4293 47.986 12.4411 47.9969 12.4548 48.0049C12.4686 48.0129 12.4839 48.0177 12.4998 48.0189L30.4264 49.4373Z" fill="#E6E6E6"/>
<path d="M29.4639 53.3853C29.4892 53.3873 29.5144 53.3803 29.535 53.3655C29.5555 53.3506 29.5702 53.329 29.5762 53.3044L29.8802 52.0726C29.884 52.0575 29.8844 52.0418 29.8814 52.0265C29.8784 52.0112 29.8721 51.9968 29.8629 51.9842C29.8537 51.9717 29.8419 51.9613 29.8283 51.9537C29.8147 51.9462 29.7996 51.9417 29.784 51.9406L11.8693 50.6898C11.845 50.6879 11.8208 50.6944 11.8008 50.7082C11.7807 50.7221 11.7661 50.7425 11.7593 50.7659L11.4435 51.8303C11.439 51.8456 11.4379 51.8616 11.4404 51.8773C11.4429 51.8929 11.4488 51.9079 11.4578 51.9209C11.4668 51.934 11.4786 51.9449 11.4924 51.9529C11.5061 51.9609 11.5215 51.9657 11.5373 51.9669L29.4639 53.3853Z" fill="#E6E6E6"/>
<path d="M21.212 60.1359C21.2375 60.1385 21.2631 60.1318 21.284 60.117C21.3049 60.1022 21.3197 60.0803 21.3257 60.0554L21.9685 57.4888C21.9722 57.4738 21.9727 57.4581 21.9698 57.4429C21.9669 57.4277 21.9608 57.4134 21.9518 57.4008C21.9428 57.3882 21.9311 57.3777 21.9176 57.3701C21.9042 57.3624 21.8892 57.3578 21.8738 57.3565L10.8724 56.4328C10.8467 56.431 10.8212 56.4384 10.8005 56.4536C10.7797 56.4688 10.7651 56.4909 10.7591 56.5159L10.2108 58.9792C10.2075 58.994 10.2074 59.0093 10.2105 59.0241C10.2136 59.0389 10.2198 59.0529 10.2287 59.0652C10.2377 59.0774 10.2491 59.0876 10.2623 59.0951C10.2755 59.1026 10.2901 59.1072 10.3052 59.1086L21.212 60.1359Z" fill="url(#paint0_linear_7_17)"/>
<defs>
<linearGradient id="paint0_linear_7_17" x1="21.0694" y1="59.1143" x2="11.5878" y2="58.2949" gradientUnits="userSpaceOnUse">
<stop stop-color="#24B497"/>
<stop offset="1" stop-color="#42E6A5"/>
</linearGradient>
</defs>
</svg>
