<svg width="82" height="65" viewBox="0 0 82 65" fill="none" xmlns="http://www.w3.org/2000/svg">
<path opacity="0.28" d="M7.70625 46.826H1V50.1792C1 52.2805 2.69892 54.0017 4.82256 54.0017H9.22634C9.22634 53.9794 9.22634 53.957 9.22634 53.9347V48.3461C9.22634 47.4967 8.55571 46.826 7.70625 46.826Z" fill="#1F3969" stroke="#1F3969" stroke-miterlimit="10" stroke-linecap="round" stroke-linejoin="round"/>
<path d="M46.759 58.8302L46.0883 51.2969H35.0454L34.3748 58.8302C34.2183 60.5739 33.1676 62.2504 31.5134 63.5917V63.614H49.6203V63.5917C47.9661 62.2504 46.9154 60.5739 46.759 58.8302Z" fill="#BFCFE2"/>
<path opacity="0.28" d="M35.0454 51.2969L34.643 55.8124H46.4908L46.0884 51.2969H35.0454Z" fill="#1F3969" stroke="#1F3969" stroke-miterlimit="10" stroke-linecap="round" stroke-linejoin="round"/>
<path d="M46.759 58.8302L46.0883 51.2969H35.0454L34.3748 58.8302C34.2183 60.5739 33.1676 62.2504 31.5134 63.5917V63.614H49.6203V63.5917C47.9661 62.2504 46.9154 60.5739 46.759 58.8302Z" stroke="#1F3969" stroke-miterlimit="10" stroke-linecap="round" stroke-linejoin="round"/>
<path d="M75.8865 52.4146H5.24729C3.77191 52.4146 2.56479 51.2075 2.56479 49.7321V3.6825C2.56479 2.20713 3.77191 1 5.24729 1H75.8865C77.3618 1 78.569 2.20713 78.569 3.6825V49.7321C78.569 51.2298 77.3618 52.4146 75.8865 52.4146Z" fill="white"/>
<path d="M75.8865 52.4146H5.24729C3.77191 52.4146 2.56479 51.2075 2.56479 49.7321V3.6825C2.56479 2.20713 3.77191 1 5.24729 1H75.8865C77.3618 1 78.569 2.20713 78.569 3.6825V49.7321C78.569 51.2298 77.3618 52.4146 75.8865 52.4146Z" fill="#BFCFE2"/>
<path d="M75.8865 52.4146H5.24729C3.77191 52.4146 2.56479 51.2075 2.56479 49.7321V3.6825C2.56479 2.20713 3.77191 1 5.24729 1H75.8865C77.3618 1 78.569 2.20713 78.569 3.6825V49.7321C78.569 51.2298 77.3618 52.4146 75.8865 52.4146Z" stroke="#1F3969" stroke-miterlimit="10" stroke-linecap="round" stroke-linejoin="round"/>
<path d="M74.7812 43.8368L74.7812 4.8064L6.37744 4.8064L6.37744 43.8368L74.7812 43.8368Z" fill="#F6F9FD"/>
<path d="M74.7812 43.8368L74.7812 4.8064L6.37744 4.8064L6.37744 43.8368L74.7812 43.8368Z" stroke="#1F3969" stroke-miterlimit="10" stroke-linecap="round" stroke-linejoin="round"/>
<path d="M37.5714 48.1002H43.5847" stroke="#1F3969" stroke-miterlimit="10" stroke-linecap="round" stroke-linejoin="round"/>
<path opacity="0.28" d="M76.9595 39.2256H51.0286C50.045 39.2256 49.2403 38.4208 49.2403 37.4373V9.96399C49.2403 8.98041 50.045 8.17566 51.0286 8.17566H76.9595C77.943 8.17566 78.7478 8.98041 78.7478 9.96399V37.4373C78.7478 38.4432 77.943 39.2256 76.9595 39.2256Z" fill="#1F3969" stroke="#1F3969" stroke-miterlimit="10" stroke-linecap="round" stroke-linejoin="round"/>
<path d="M78.7478 37.6608H52.817C51.8334 37.6608 51.0286 36.856 51.0286 35.8724V8.39917C51.0286 7.41559 51.8334 6.61084 52.817 6.61084H78.7478C79.7314 6.61084 80.5361 7.41559 80.5361 8.39917V35.8724C80.5361 36.8784 79.7314 37.6608 78.7478 37.6608Z" fill="#2AA1FF"/>
<path d="M78.7478 37.6608H52.817C51.8334 37.6608 51.0286 36.856 51.0286 35.8724V8.39917C51.0286 7.41559 51.8334 6.61084 52.817 6.61084H78.7478C79.7314 6.61084 80.5361 7.41559 80.5361 8.39917V35.8724C80.5361 36.8784 79.7314 37.6608 78.7478 37.6608Z" stroke="#1F3969" stroke-miterlimit="10" stroke-linecap="round" stroke-linejoin="round"/>
<path opacity="0.34" d="M74.8805 15.1278H56.6395C55.9912 15.1278 55.4771 14.6136 55.4771 13.9654V12.2217C55.4771 11.5735 55.9912 11.0593 56.6395 11.0593H74.8805C75.5288 11.0593 76.0429 11.5735 76.0429 12.2217V13.9654C76.0429 14.6136 75.5288 15.1278 74.8805 15.1278Z" stroke="white" stroke-miterlimit="10" stroke-linecap="round" stroke-linejoin="round"/>
<g opacity="0.34">
<path d="M66.8777 21.6776H56.6842C56.036 21.6776 55.5218 21.1634 55.5218 20.5152V18.7715C55.5218 18.1233 56.036 17.6091 56.6842 17.6091H66.8777C67.526 17.6091 68.0402 18.1233 68.0402 18.7715V20.5152C68.0178 21.1634 67.5037 21.6776 66.8777 21.6776Z" stroke="white" stroke-miterlimit="10" stroke-linecap="round" stroke-linejoin="round"/>
<path d="M74.9029 21.6776H70.9462C70.2979 21.6776 69.7838 21.1634 69.7838 20.5152V18.7715C69.7838 18.1233 70.2979 17.6091 70.9462 17.6091H74.9029C75.5511 17.6091 76.0653 18.1233 76.0653 18.7715V20.5152C76.0653 21.1634 75.5511 21.6776 74.9029 21.6776Z" stroke="white" stroke-miterlimit="10" stroke-linecap="round" stroke-linejoin="round"/>
</g>
<path d="M55.4995 28.4733H76.0429" stroke="white" stroke-miterlimit="10" stroke-linecap="round" stroke-linejoin="round"/>
<path d="M55.4995 30.8875H76.0429" stroke="white" stroke-miterlimit="10" stroke-linecap="round" stroke-linejoin="round"/>
<path d="M55.4995 33.3018H68.0178" stroke="white" stroke-miterlimit="10" stroke-linecap="round" stroke-linejoin="round"/>
</svg>
