<svg width="80" height="70" viewBox="0 0 80 70" fill="none" xmlns="http://www.w3.org/2000/svg">
<path d="M54.8051 66.8152H24.0593V68.6495H54.8051V66.8152Z" fill="#444E59"/>
<path d="M76.1613 54.827H3.62038C2.17917 54.827 1 53.6478 1 52.2066V3.62038C1 2.17917 2.17917 1 3.62038 1H76.1613C77.6025 1 78.7816 2.17917 78.7816 3.62038V52.1848C78.7816 53.6478 77.6243 54.827 76.1613 54.827Z" fill="#BBBFC2"/>
<path d="M74.1714 45.6074L74.1714 5.93042L5.91045 5.93042L5.91045 45.6074L74.1714 45.6074Z" fill="#28A8E0"/>
<path opacity="0.4" d="M76.336 54.827H64.9591V34.126C64.9591 32.4664 66.2912 31.1344 67.9507 31.1344H76.336V54.827Z" fill="#848484"/>
<path opacity="0.4" d="M6.52464 34.8247H1V51.1366C1 53.1674 2.74693 54.827 4.79956 54.827H11.154V39.5414C11.1321 36.9865 9.05767 34.8247 6.52464 34.8247Z" fill="#848484"/>
<path d="M76.3796 54.827H3.70774C2.26653 54.827 1.08736 53.6478 1.08736 52.2066V3.62038C1.08736 2.17917 2.26653 1 3.70774 1H76.3796C77.8208 1 79 2.17917 79 3.62038V52.1848C79 53.6478 77.8208 54.827 76.3796 54.827Z" stroke="#444E59" stroke-miterlimit="10" stroke-linecap="round" stroke-linejoin="round"/>
<path d="M74.0834 45.6067L74.0834 5.92981L6.01905 5.92981L6.01905 45.6067L74.0834 45.6067Z" stroke="#444E59" stroke-miterlimit="10" stroke-linecap="round" stroke-linejoin="round"/>
<path opacity="0.32" d="M60.8539 43.6904H23.3388C22.4871 43.6904 21.8102 42.9916 21.8102 42.1618V15.3902C21.8102 14.5386 22.509 13.8617 23.3388 13.8617H60.8539C61.7055 13.8617 62.3824 14.5605 62.3824 15.3902V42.14C62.3824 42.9916 61.7055 43.6904 60.8539 43.6904Z" fill="#848484"/>
<path d="M59.107 42.2055H21.5918C20.7402 42.2055 20.0633 41.5067 20.0633 40.677V13.9272C20.0633 13.0756 20.762 12.3987 21.5918 12.3987H59.107C59.9586 12.3987 60.6355 13.0974 60.6355 13.9272V40.677C60.6573 41.5286 59.9586 42.2055 59.107 42.2055Z" fill="#AFB1B2"/>
<path d="M59.107 42.2055H21.5918C20.7402 42.2055 20.0633 41.5067 20.0633 40.677V13.9272C20.0633 13.0756 20.762 12.3987 21.5918 12.3987H59.107C59.9586 12.3987 60.6355 13.0974 60.6355 13.9272V40.677C60.6573 41.5286 59.9586 42.2055 59.107 42.2055Z" stroke="#444E59" stroke-miterlimit="10" stroke-linecap="round" stroke-linejoin="round"/>
<path d="M49.1932 66.8151H30.8942L33.1652 54.8269H46.9222L49.1932 66.8151Z" fill="#AEAEAF"/>
<path opacity="0.32" d="M47.5336 58.2116L46.9222 54.8269H33.1652L32.5538 58.2116H47.5336Z" fill="#848484"/>
<path d="M49.1932 66.8151H30.8942L33.1652 54.8269H46.9222L49.1932 66.8151Z" stroke="#444E59" stroke-miterlimit="10" stroke-linecap="round" stroke-linejoin="round"/>
<path d="M54.8051 66.8152H24.0593V68.6495H54.8051V66.8152Z" stroke="#444E59" stroke-miterlimit="10" stroke-linecap="round" stroke-linejoin="round"/>
<path d="M39.9345 50.6781C40.6822 50.6781 41.2884 50.0719 41.2884 49.3242C41.2884 48.5765 40.6822 47.9703 39.9345 47.9703C39.1868 47.9703 38.5806 48.5765 38.5806 49.3242C38.5806 50.0719 39.1868 50.6781 39.9345 50.6781Z" fill="#444E59"/>
<path d="M56.028 39.4542H18.5129C17.6613 39.4542 16.9843 38.7554 16.9843 37.9256V11.154C16.9843 10.3024 17.6831 9.62549 18.5129 9.62549H56.028C56.8796 9.62549 57.5566 10.3243 57.5566 11.154V37.9038C57.5784 38.7554 56.8796 39.4542 56.028 39.4542Z" fill="white"/>
<path d="M56.028 39.4542H18.5129C17.6613 39.4542 16.9843 38.7554 16.9843 37.9256V11.154C16.9843 10.3024 17.6831 9.62549 18.5129 9.62549H56.028C56.8796 9.62549 57.5566 10.3243 57.5566 11.154V37.9038C57.5784 38.7554 56.8796 39.4542 56.028 39.4542Z" stroke="#444E59" stroke-miterlimit="10" stroke-linecap="round" stroke-linejoin="round"/>
<path d="M57.5784 14.233H16.9843V11.2195C16.9843 10.3461 17.7049 9.60364 18.6002 9.60364H56.0717C56.9015 9.60364 57.5784 10.2806 57.5784 11.1104V14.233Z" fill="#BBBFC2"/>
<path d="M57.5784 14.233H16.9843V11.2195C16.9843 10.3461 17.7049 9.60364 18.6002 9.60364H56.0717C56.9015 9.60364 57.5784 10.2806 57.5784 11.1104V14.233Z" stroke="#444E59" stroke-miterlimit="10" stroke-linecap="round" stroke-linejoin="round"/>
<path d="M20.8931 12.6607C21.291 12.6607 21.6137 12.3381 21.6137 11.9401C21.6137 11.5421 21.291 11.2195 20.8931 11.2195C20.4951 11.2195 20.1725 11.5421 20.1725 11.9401C20.1725 12.3381 20.4951 12.6607 20.8931 12.6607Z" fill="#444E59"/>
<path d="M23.2732 12.6607C23.6712 12.6607 23.9939 12.3381 23.9939 11.9401C23.9939 11.5421 23.6712 11.2195 23.2732 11.2195C22.8753 11.2195 22.5526 11.5421 22.5526 11.9401C22.5526 12.3381 22.8753 12.6607 23.2732 12.6607Z" fill="#444E59"/>
<path d="M25.6316 12.6607C26.0296 12.6607 26.3522 12.3381 26.3522 11.9401C26.3522 11.5421 26.0296 11.2195 25.6316 11.2195C25.2336 11.2195 24.911 11.5421 24.911 11.9401C24.911 12.3381 25.2336 12.6607 25.6316 12.6607Z" fill="#444E59"/>
<path d="M53.757 22.2251H20.5C20.2598 22.2251 20.0633 22.0286 20.0633 21.7883V17.1372C20.0633 16.897 20.2598 16.7004 20.5 16.7004H53.757C53.9972 16.7004 54.1937 16.897 54.1937 17.1372V21.7883C54.1937 22.0286 53.9972 22.2251 53.757 22.2251Z" fill="#6567C3"/>
<path opacity="0.2" d="M30.0644 28.0554H20.4782C20.238 28.0554 20.0414 27.8589 20.0414 27.6187V25.1075C20.0414 24.8673 20.238 24.6708 20.4782 24.6708H30.0644C30.3046 24.6708 30.5011 24.8673 30.5011 25.1075V27.6187C30.5011 27.8589 30.3264 28.0554 30.0644 28.0554Z" fill="#444E59"/>
<path opacity="0.2" d="M21.5918 30.5229H29.2783" stroke="#444E59" stroke-miterlimit="10" stroke-linecap="round" stroke-linejoin="round"/>
<path opacity="0.2" d="M21.5918 32.9905H29.2783" stroke="#444E59" stroke-miterlimit="10" stroke-linecap="round" stroke-linejoin="round"/>
<path opacity="0.2" d="M42.0745 28.0554H32.4882C32.248 28.0554 32.0515 27.8589 32.0515 27.6187V25.1075C32.0515 24.8673 32.248 24.6708 32.4882 24.6708H42.0745C42.3147 24.6708 42.5112 24.8673 42.5112 25.1075V27.6187C42.5112 27.8589 42.3147 28.0554 42.0745 28.0554Z" fill="#444E59"/>
<path opacity="0.2" d="M33.5801 30.5229H40.9608" stroke="#444E59" stroke-miterlimit="10" stroke-linecap="round" stroke-linejoin="round"/>
<path opacity="0.2" d="M33.5801 32.9905H40.9608" stroke="#444E59" stroke-miterlimit="10" stroke-linecap="round" stroke-linejoin="round"/>
<g opacity="0.2">
<path d="M54.0627 33.2962H44.4765C44.2363 33.2962 44.0398 33.0997 44.0398 32.8595V25.1294C44.0398 24.8892 44.2363 24.6926 44.4765 24.6926H54.0627C54.3029 24.6926 54.4994 24.8892 54.4994 25.1294V32.8595C54.4994 33.0997 54.3029 33.2962 54.0627 33.2962Z" fill="#444E59"/>
</g>
<g opacity="0.09">
<path d="M53.757 35.7637H44.6294C44.28 35.7637 44.0179 35.4799 44.0179 35.1523C44.0179 34.8248 44.3018 34.5409 44.6294 34.5409H53.757C54.1064 34.5409 54.3684 34.8248 54.3684 35.1523C54.3684 35.4799 54.0846 35.7637 53.757 35.7637Z" fill="#444E59"/>
</g>
</svg>
