<svg width="119" height="70" viewBox="0 0 119 70" fill="none" xmlns="http://www.w3.org/2000/svg">
<path d="M107.122 61.8393H11.2125V4.20625C11.2125 2.50418 12.5979 1.11877 14.2999 1.11877H104.074C105.737 1.11877 107.083 2.4646 107.083 4.12709V61.8393H107.122Z" fill="#BBBFC2"/>
<path d="M107.36 61.958H11.4895V4.16665C11.4895 2.42499 12.9145 1 14.6562 1H104.193C105.935 1 107.36 2.42499 107.36 4.16665V61.958Z" stroke="#444E59" stroke-miterlimit="10" stroke-linecap="round" stroke-linejoin="round"/>
<path opacity="0.71" d="M102.106 56.8621L102.106 6.11658L16.8045 6.11658L16.8045 56.8621L102.106 56.8621Z" fill="#5D5D5D"/>
<path opacity="0.32" d="M37.654 47.1935H30.2915C29.8561 47.1935 29.4998 46.8373 29.4998 46.4019V21.1874C29.4998 20.752 29.8561 20.3958 30.2915 20.3958H37.654C38.0894 20.3958 38.4456 20.752 38.4456 21.1874V46.4414C38.4456 46.8373 38.0894 47.1935 37.654 47.1935Z" fill="#848484"/>
<path opacity="0.32" d="M90.8141 52.2996H48.3018C47.431 52.2996 46.7185 51.5871 46.7185 50.7163V18.2186C46.7185 17.3478 47.431 16.6353 48.3018 16.6353H90.8141C91.6849 16.6353 92.3974 17.3478 92.3974 18.2186V50.7163C92.3974 51.5871 91.7245 52.2996 90.8141 52.2996Z" fill="#848484"/>
<path d="M102.031 56.6222L102.031 6.31201L16.8085 6.31201L16.8085 56.6222L102.031 56.6222Z" stroke="#444E59" stroke-miterlimit="10" stroke-linecap="round" stroke-linejoin="round"/>
<path d="M117.81 61.958H1V65.6788C1 67.4205 2.42499 68.8455 4.16665 68.8455H114.643C116.385 68.8455 117.81 67.4205 117.81 65.6788V61.958Z" fill="white"/>
<path opacity="0.8" d="M5.47291 69.083H113.376C115.554 69.083 117.335 67.4205 117.731 65.1643H1.07917C1.475 67.4205 3.29584 69.083 5.47291 69.083Z" fill="#BBBFC2"/>
<path d="M117.81 61.958H1V65.6788C1 67.4205 2.42499 68.8455 4.16665 68.8455H114.643C116.385 68.8455 117.81 67.4205 117.81 65.6788V61.958Z" stroke="#444E59" stroke-miterlimit="10" stroke-linecap="round" stroke-linejoin="round"/>
<path d="M36.3082 18.377H27.4019V27.2832H36.3082V18.377Z" fill="#F09F54"/>
<path d="M36.4665 18.4562H27.5603V27.3624H36.4665V18.4562Z" stroke="#444E59" stroke-miterlimit="10" stroke-linecap="round" stroke-linejoin="round"/>
<path d="M36.4665 18.4562H27.5603V27.3624H36.4665V18.4562Z" stroke="#444E59" stroke-miterlimit="10" stroke-linecap="round" stroke-linejoin="round"/>
<path d="M36.3082 27.2832H27.4019V36.1894H36.3082V27.2832Z" fill="#8D91DB"/>
<path d="M36.4665 27.402H27.5603V36.3082H36.4665V27.402Z" stroke="#444E59" stroke-miterlimit="10" stroke-linecap="round" stroke-linejoin="round"/>
<path d="M36.3082 36.1895H27.4019V45.0957H36.3082V36.1895Z" fill="#6567C3"/>
<path d="M36.4665 36.3081H27.5603V45.2143H36.4665V36.3081Z" stroke="#444E59" stroke-miterlimit="10" stroke-linecap="round" stroke-linejoin="round"/>
<path d="M88.2412 49.5685H45.6894C44.8185 49.5685 44.106 48.856 44.106 47.9851V15.4874C44.106 14.6165 44.8185 13.9041 45.6894 13.9041H88.2412C89.112 13.9041 89.8245 14.6165 89.8245 15.4874V47.9851C89.8245 48.8955 89.112 49.5685 88.2412 49.5685Z" fill="white"/>
<path d="M88.2412 49.5685H45.6894C44.8185 49.5685 44.106 48.856 44.106 47.9851V15.4874C44.106 14.6165 44.8185 13.9041 45.6894 13.9041H88.2412C89.112 13.9041 89.8245 14.6165 89.8245 15.4874V47.9851C89.8245 48.8955 89.112 49.5685 88.2412 49.5685Z" stroke="#444E59" stroke-miterlimit="10" stroke-linecap="round" stroke-linejoin="round"/>
<g opacity="0.3">
<path d="M76.4454 40.1873V40.781H75.8517" stroke="#444E59" stroke-linejoin="round"/>
<path d="M75.0996 40.7811H58.5143" stroke="#444E59" stroke-linejoin="round" stroke-dasharray="2.86 2.86"/>
<path d="M58.1185 40.781H57.5247V40.1873" stroke="#444E59" stroke-linejoin="round"/>
<path d="M57.5247 39.3561V23.9187" stroke="#444E59" stroke-linejoin="round" stroke-dasharray="3 3"/>
<path d="M57.5247 23.5228V22.9291H58.1185" stroke="#444E59" stroke-linejoin="round"/>
<path d="M58.8705 22.9291H75.4559" stroke="#444E59" stroke-linejoin="round" stroke-dasharray="2.86 2.86"/>
<path d="M75.8517 22.9291H76.4454V23.5228" stroke="#444E59" stroke-linejoin="round"/>
<path d="M76.4454 24.3145V39.7915" stroke="#444E59" stroke-linejoin="round" stroke-dasharray="3 3"/>
</g>
<path d="M59.0289 21.5436H56.2184V24.354H59.0289V21.5436Z" fill="white"/>
<path d="M58.8705 21.4248H56.0997V24.1956H58.8705V21.4248Z" stroke="#444E59" stroke-miterlimit="10" stroke-linejoin="round"/>
<path d="M59.0289 39.3561H56.2184V42.1665H59.0289V39.3561Z" fill="white"/>
<path d="M58.8705 39.2769H56.0997V42.0477H58.8705V39.2769Z" stroke="#444E59" stroke-miterlimit="10" stroke-linejoin="round"/>
<path d="M77.8704 21.5436H75.06V24.354H77.8704V21.5436Z" fill="white"/>
<path d="M77.8309 21.4248H75.0601V24.1956H77.8309V21.4248Z" stroke="#444E59" stroke-miterlimit="10" stroke-linejoin="round"/>
<path d="M77.8704 39.3561H75.06V42.1665H77.8704V39.3561Z" fill="white"/>
<path d="M77.8309 39.2769H75.0601V42.0477H77.8309V39.2769Z" stroke="#444E59" stroke-miterlimit="10" stroke-linejoin="round"/>
<path d="M32.0332 31.9935L34.8436 38.0102L37.5748 39.4352L39.4748 37.5352L38.0894 34.7643L32.0332 31.9935Z" fill="white"/>
<path d="M32.0332 31.9935L34.8436 38.0102L37.5748 39.4352L39.4748 37.5352L38.0894 34.7643L32.0332 31.9935Z" stroke="#444E59" stroke-miterlimit="10" stroke-linejoin="round"/>
<path d="M35.5957 36.1498C36.011 36.1498 36.3477 35.8131 36.3477 35.3977C36.3477 34.9823 36.011 34.6456 35.5957 34.6456C35.1803 34.6456 34.8436 34.9823 34.8436 35.3977C34.8436 35.8131 35.1803 36.1498 35.5957 36.1498Z" fill="#444E59"/>
<path d="M32.0332 31.9935L35.1602 35.1206" stroke="#444E59" stroke-miterlimit="10" stroke-linecap="round" stroke-linejoin="round"/>
<path d="M39.4866 37.5038L37.5834 39.4071L38.9548 40.7786L40.8581 38.8753L39.4866 37.5038Z" fill="white"/>
<path d="M39.4866 37.5038L37.5834 39.4071L38.9548 40.7786L40.8581 38.8753L39.4866 37.5038Z" stroke="#444E59" stroke-miterlimit="10" stroke-linejoin="round"/>
</svg>
