<svg width="533" height="332" viewBox="0 0 533 332" fill="none" xmlns="http://www.w3.org/2000/svg">
<g clip-path="url(#clip0_6_508)">
<path d="M329.435 103.869C330.412 93.1904 333.11 82.7473 337.422 72.9566C338.624 70.2319 339.947 67.5672 341.391 64.9625C341.463 64.8263 341.481 64.6669 341.44 64.5178C341.398 64.3688 341.302 64.2418 341.17 64.1637C341.038 64.0856 340.882 64.0625 340.734 64.0992C340.586 64.1359 340.457 64.2295 340.376 64.3604C335.125 73.8473 331.447 84.1455 329.488 94.8432C328.943 97.8306 328.533 100.839 328.259 103.869C328.189 104.633 329.365 104.628 329.435 103.869Z" fill="#212F53" fill-opacity="0.85" style="mix-blend-mode:multiply"/>
<path d="M329.435 103.869C330.412 93.1904 333.11 82.7473 337.422 72.9566C338.624 70.2319 339.947 67.5672 341.391 64.9625C341.463 64.8263 341.481 64.6669 341.44 64.5178C341.398 64.3688 341.302 64.2418 341.17 64.1637C341.038 64.0856 340.882 64.0625 340.734 64.0992C340.586 64.1359 340.457 64.2295 340.376 64.3604C335.125 73.8473 331.447 84.1455 329.488 94.8432C328.943 97.8306 328.533 100.839 328.259 103.869C328.189 104.633 329.365 104.628 329.435 103.869Z" fill="url(#paint0_linear_6_508)" fill-opacity="0.7"/>
<path d="M329.435 103.869C330.412 93.1904 333.11 82.7473 337.422 72.9566C338.624 70.2319 339.947 67.5672 341.391 64.9625C341.463 64.8263 341.481 64.6669 341.44 64.5178C341.398 64.3688 341.302 64.2418 341.17 64.1637C341.038 64.0856 340.882 64.0625 340.734 64.0992C340.586 64.1359 340.457 64.2295 340.376 64.3604C335.125 73.8473 331.447 84.1455 329.488 94.8432C328.943 97.8306 328.533 100.839 328.259 103.869C328.189 104.633 329.365 104.628 329.435 103.869Z" fill="#0A1A3D" fill-opacity="0.4"/>
<path d="M344.238 66.8758C348.35 66.8758 351.683 63.4931 351.683 59.3203C351.683 55.1474 348.35 51.7647 344.238 51.7647C340.126 51.7647 336.793 55.1474 336.793 59.3203C336.793 63.4931 340.126 66.8758 344.238 66.8758Z" fill="#212F53" fill-opacity="0.85" style="mix-blend-mode:multiply"/>
<path d="M344.238 66.8758C348.35 66.8758 351.683 63.4931 351.683 59.3203C351.683 55.1474 348.35 51.7647 344.238 51.7647C340.126 51.7647 336.793 55.1474 336.793 59.3203C336.793 63.4931 340.126 66.8758 344.238 66.8758Z" fill="url(#paint1_linear_6_508)" fill-opacity="0.7"/>
<path d="M344.238 66.8758C348.35 66.8758 351.683 63.4931 351.683 59.3203C351.683 55.1474 348.35 51.7647 344.238 51.7647C340.126 51.7647 336.793 55.1474 336.793 59.3203C336.793 63.4931 340.126 66.8758 344.238 66.8758Z" fill="#0A1A3D" fill-opacity="0.4"/>
<path d="M330.196 104.069C330.83 97.1418 332.581 90.367 335.378 84.0152C336.158 82.2476 337.016 80.5189 337.953 78.8291C338 78.7408 338.011 78.6373 337.984 78.5407C337.958 78.444 337.895 78.3616 337.81 78.311C337.724 78.2603 337.623 78.2453 337.527 78.2691C337.43 78.2929 337.347 78.3536 337.294 78.4385C333.888 84.5931 331.502 91.274 330.231 98.2141C329.877 100.152 329.611 102.104 329.433 104.069C329.388 104.565 330.151 104.562 330.196 104.069Z" fill="#212F53" fill-opacity="0.85" style="mix-blend-mode:multiply"/>
<path d="M330.196 104.069C330.83 97.1418 332.581 90.367 335.378 84.0152C336.158 82.2476 337.016 80.5189 337.953 78.8291C338 78.7408 338.011 78.6373 337.984 78.5407C337.958 78.444 337.895 78.3616 337.81 78.311C337.724 78.2603 337.623 78.2453 337.527 78.2691C337.43 78.2929 337.347 78.3536 337.294 78.4385C333.888 84.5931 331.502 91.274 330.231 98.2141C329.877 100.152 329.611 102.104 329.433 104.069C329.388 104.565 330.151 104.562 330.196 104.069Z" fill="url(#paint2_linear_6_508)" fill-opacity="0.7"/>
<path d="M330.196 104.069C330.83 97.1418 332.581 90.367 335.378 84.0152C336.158 82.2476 337.016 80.5189 337.953 78.8291C338 78.7408 338.011 78.6373 337.984 78.5407C337.958 78.444 337.895 78.3616 337.81 78.311C337.724 78.2603 337.623 78.2453 337.527 78.2691C337.43 78.2929 337.347 78.3536 337.294 78.4385C333.888 84.5931 331.502 91.274 330.231 98.2141C329.877 100.152 329.611 102.104 329.433 104.069C329.388 104.565 330.151 104.562 330.196 104.069Z" fill="#0A1A3D" fill-opacity="0.4"/>
<path d="M339.8 80.0704C342.468 80.0704 344.63 77.8758 344.63 75.1687C344.63 72.4616 342.468 70.2671 339.8 70.2671C337.132 70.2671 334.97 72.4616 334.97 75.1687C334.97 77.8758 337.132 80.0704 339.8 80.0704Z" fill="#212F53" fill-opacity="0.85" style="mix-blend-mode:multiply"/>
<path d="M339.8 80.0704C342.468 80.0704 344.63 77.8758 344.63 75.1687C344.63 72.4616 342.468 70.2671 339.8 70.2671C337.132 70.2671 334.97 72.4616 334.97 75.1687C334.97 77.8758 337.132 80.0704 339.8 80.0704Z" fill="url(#paint3_linear_6_508)" fill-opacity="0.7"/>
<path d="M339.8 80.0704C342.468 80.0704 344.63 77.8758 344.63 75.1687C344.63 72.4616 342.468 70.2671 339.8 70.2671C337.132 70.2671 334.97 72.4616 334.97 75.1687C334.97 77.8758 337.132 80.0704 339.8 80.0704Z" fill="#0A1A3D" fill-opacity="0.4"/>
<path d="M329.234 103.607C325.535 97.7489 322.809 91.3143 321.165 84.5599C320.709 82.6795 320.337 80.7808 320.052 78.8638C320.035 78.7648 319.982 78.6761 319.902 78.6166C319.822 78.557 319.723 78.5312 319.625 78.5445C319.527 78.5579 319.438 78.6094 319.376 78.6882C319.315 78.767 319.286 78.8669 319.296 78.9668C320.34 85.9457 322.508 92.703 325.712 98.9684C326.608 100.717 327.581 102.422 328.632 104.083C328.897 104.502 329.497 104.023 329.234 103.607Z" fill="#212F53" fill-opacity="0.85" style="mix-blend-mode:multiply"/>
<path d="M329.234 103.607C325.535 97.7489 322.809 91.3143 321.165 84.5599C320.709 82.6795 320.337 80.7808 320.052 78.8638C320.035 78.7648 319.982 78.6761 319.902 78.6166C319.822 78.557 319.723 78.5312 319.625 78.5445C319.527 78.5579 319.438 78.6094 319.376 78.6882C319.315 78.767 319.286 78.8669 319.296 78.9668C320.34 85.9457 322.508 92.703 325.712 98.9684C326.608 100.717 327.581 102.422 328.632 104.083C328.897 104.502 329.497 104.023 329.234 103.607Z" fill="url(#paint4_linear_6_508)" fill-opacity="0.7"/>
<path d="M329.234 103.607C325.535 97.7489 322.809 91.3143 321.165 84.5599C320.709 82.6795 320.337 80.7808 320.052 78.8638C320.035 78.7648 319.982 78.6761 319.902 78.6166C319.822 78.557 319.723 78.5312 319.625 78.5445C319.527 78.5579 319.438 78.6094 319.376 78.6882C319.315 78.767 319.286 78.8669 319.296 78.9668C320.34 85.9457 322.508 92.703 325.712 98.9684C326.608 100.717 327.581 102.422 328.632 104.083C328.897 104.502 329.497 104.023 329.234 103.607Z" fill="#0A1A3D" fill-opacity="0.4"/>
<path d="M319.29 79.7263C321.957 79.7263 324.12 77.5318 324.12 74.8247C324.12 72.1176 321.957 69.923 319.29 69.923C316.622 69.923 314.46 72.1176 314.46 74.8247C314.46 77.5318 316.622 79.7263 319.29 79.7263Z" fill="#212F53" fill-opacity="0.85" style="mix-blend-mode:multiply"/>
<path d="M319.29 79.7263C321.957 79.7263 324.12 77.5318 324.12 74.8247C324.12 72.1176 321.957 69.923 319.29 69.923C316.622 69.923 314.46 72.1176 314.46 74.8247C314.46 77.5318 316.622 79.7263 319.29 79.7263Z" fill="url(#paint5_linear_6_508)" fill-opacity="0.7"/>
<path d="M319.29 79.7263C321.957 79.7263 324.12 77.5318 324.12 74.8247C324.12 72.1176 321.957 69.923 319.29 69.923C316.622 69.923 314.46 72.1176 314.46 74.8247C314.46 77.5318 316.622 79.7263 319.29 79.7263Z" fill="#0A1A3D" fill-opacity="0.4"/>
<path d="M314.406 107.943V98.3128C314.407 97.3554 314.782 96.4374 315.449 95.7603C316.116 95.0833 317.021 94.7024 317.964 94.7014H340.108C341.051 94.7024 341.956 95.0833 342.623 95.7603C343.29 96.4374 343.666 97.3554 343.667 98.3128V107.943C343.666 108.901 343.29 109.819 342.623 110.496C341.956 111.173 341.051 111.554 340.108 111.555H317.964C317.021 111.554 316.116 111.173 315.449 110.496C314.782 109.819 314.407 108.901 314.406 107.943Z" fill="#B7C5F2"/>
<path d="M339.317 46.5481H329.827C328.883 46.547 327.979 46.1662 327.312 45.4891C326.644 44.8121 326.269 43.8941 326.268 42.9366V3.61149C326.269 2.654 326.644 1.73604 327.312 1.05898C327.979 0.381933 328.883 0.00107908 329.827 0H339.317C340.26 0.00107908 341.165 0.381933 341.832 1.05898C342.499 1.73604 342.875 2.654 342.876 3.61149V42.9366C342.875 43.8941 342.499 44.8121 341.832 45.4891C341.165 46.1662 340.26 46.547 339.317 46.5481Z" fill="#B7C5F2"/>
<path d="M342.48 7.62427H326.663V10.8345H342.48V7.62427Z" fill="#505D84"/>
<path d="M342.48 32.5034H326.663V35.7136H342.48V32.5034Z" fill="#505D84"/>
<path d="M363.042 46.5481H353.552C352.609 46.547 351.704 46.1662 351.037 45.4891C350.37 44.8121 349.994 43.8941 349.993 42.9366V3.61149C349.994 2.654 350.37 1.73604 351.037 1.05898C351.704 0.381933 352.609 0.00107908 353.552 0H363.042C363.986 0.00107908 364.89 0.381933 365.557 1.05898C366.225 1.73604 366.6 2.654 366.601 3.61149V42.9366C366.6 43.8941 366.225 44.8121 365.557 45.4891C364.89 46.1662 363.986 46.547 363.042 46.5481Z" fill="#B7C5F2"/>
<path d="M366.205 7.62427H350.389V10.8345H366.205V7.62427Z" fill="#505D84"/>
<path d="M366.205 32.5034H350.389V35.7136H366.205V32.5034Z" fill="#505D84"/>
<path d="M386.767 46.5481H377.277C376.334 46.547 375.429 46.1662 374.762 45.4891C374.095 44.8121 373.72 43.8941 373.718 42.9366V3.61149C373.72 2.654 374.095 1.73604 374.762 1.05898C375.429 0.381933 376.334 0.00107908 377.277 0H386.767C387.711 0.00107908 388.615 0.381933 389.283 1.05898C389.95 1.73604 390.325 2.654 390.326 3.61149V42.9366C390.325 43.8941 389.95 44.8121 389.283 45.4891C388.615 46.1662 387.711 46.547 386.767 46.5481Z" fill="#B7C5F2"/>
<path d="M389.931 7.62427H374.114V10.8345H389.931V7.62427Z" fill="#505D84"/>
<path d="M389.931 32.5034H374.114V35.7136H389.931V32.5034Z" fill="#505D84"/>
<path d="M399.421 111.555H389.931C388.987 111.554 388.083 111.173 387.415 110.496C386.748 109.819 386.373 108.901 386.372 107.943V68.6183C386.373 67.6608 386.748 66.7428 387.415 66.0658C388.083 65.3887 388.987 65.0079 389.931 65.0068H399.421C400.364 65.0079 401.269 65.3887 401.936 66.0658C402.603 66.7428 402.979 67.6608 402.98 68.6183V107.943C402.979 108.901 402.603 109.819 401.936 110.496C401.269 111.173 400.364 111.554 399.421 111.555Z" fill="#B7C5F2"/>
<path d="M402.584 72.6311H386.767V75.8413H402.584V72.6311Z" fill="#505D84"/>
<path d="M402.584 97.5103H386.767V100.72H402.584V97.5103Z" fill="#505D84"/>
<path d="M423.146 111.555H413.656C412.712 111.554 411.808 111.173 411.141 110.496C410.473 109.819 410.098 108.901 410.097 107.943V68.6183C410.098 67.6608 410.473 66.7428 411.141 66.0658C411.808 65.3887 412.712 65.0079 413.656 65.0068H423.146C424.089 65.0079 424.994 65.3887 425.661 66.0658C426.328 66.7428 426.704 67.6608 426.705 68.6183V107.943C426.704 108.901 426.328 109.819 425.661 110.496C424.994 111.173 424.089 111.554 423.146 111.555Z" fill="#B7C5F2"/>
<path d="M426.309 72.6311H410.493V75.8413H426.309V72.6311Z" fill="#505D84"/>
<path d="M426.309 97.5103H410.493V100.72H426.309V97.5103Z" fill="#505D84"/>
<path d="M446.871 111.555H437.381C436.438 111.554 435.533 111.173 434.866 110.496C434.199 109.819 433.823 108.901 433.822 107.943V68.6183C433.823 67.6608 434.199 66.7428 434.866 66.0658C435.533 65.3887 436.438 65.0079 437.381 65.0068H446.871C447.815 65.0079 448.719 65.3887 449.386 66.0658C450.054 66.7428 450.429 67.6608 450.43 68.6183V107.943C450.429 108.901 450.054 109.819 449.386 110.496C448.719 111.173 447.815 111.554 446.871 111.555Z" fill="#B7C5F2"/>
<path d="M450.035 72.6311H434.218V75.8413H450.035V72.6311Z" fill="#505D84"/>
<path d="M450.035 97.5103H434.218V100.72H450.035V97.5103Z" fill="#505D84"/>
<path d="M336.944 176.562H327.454C326.511 176.561 325.606 176.18 324.939 175.503C324.272 174.826 323.897 173.908 323.896 172.95V133.625C323.897 132.668 324.272 131.75 324.939 131.073C325.606 130.396 326.511 130.015 327.454 130.014H336.944C337.888 130.015 338.793 130.396 339.46 131.073C340.127 131.75 340.502 132.668 340.503 133.625V172.95C340.502 173.908 340.127 174.826 339.46 175.503C338.793 176.18 337.888 176.561 336.944 176.562Z" fill="#B7C5F2"/>
<path d="M340.108 137.638H324.291V140.848H340.108V137.638Z" fill="#505D84"/>
<path d="M340.108 162.517H324.291V165.727H340.108V162.517Z" fill="#505D84"/>
<path d="M360.67 176.562H351.18C350.236 176.561 349.331 176.18 348.664 175.503C347.997 174.826 347.622 173.908 347.621 172.95V133.625C347.622 132.668 347.997 131.75 348.664 131.073C349.331 130.396 350.236 130.015 351.18 130.014H360.67C361.613 130.015 362.518 130.396 363.185 131.073C363.852 131.75 364.227 132.668 364.228 133.625V172.95C364.227 173.908 363.852 174.826 363.185 175.503C362.518 176.18 361.613 176.561 360.67 176.562Z" fill="#B7C5F2"/>
<path d="M363.833 137.638H348.016V140.848H363.833V137.638Z" fill="#505D84"/>
<path d="M363.833 162.517H348.016V165.727H363.833V162.517Z" fill="#505D84"/>
<path d="M384.395 176.562H374.905C373.961 176.561 373.057 176.18 372.389 175.503C371.722 174.826 371.347 173.908 371.346 172.95V133.625C371.347 132.668 371.722 131.75 372.389 131.073C373.057 130.396 373.961 130.015 374.905 130.014H384.395C385.338 130.015 386.243 130.396 386.91 131.073C387.577 131.75 387.953 132.668 387.954 133.625V172.95C387.953 173.908 387.577 174.826 386.91 175.503C386.243 176.18 385.338 176.561 384.395 176.562Z" fill="#B7C5F2"/>
<path d="M387.558 137.638H371.741V140.848H387.558V137.638Z" fill="#505D84"/>
<path d="M387.558 162.517H371.741V165.727H387.558V162.517Z" fill="#505D84"/>
<path d="M410.493 46.5481H401.002C400.059 46.547 399.154 46.1662 398.487 45.4891C397.82 44.8121 397.445 43.8941 397.444 42.9366V3.61149C397.445 2.654 397.82 1.73604 398.487 1.05898C399.154 0.381933 400.059 0.00107908 401.002 0H410.493C411.436 0.00107908 412.341 0.381933 413.008 1.05898C413.675 1.73604 414.05 2.654 414.051 3.61149V42.9366C414.05 43.8941 413.675 44.8121 413.008 45.4891C412.341 46.1662 411.436 46.547 410.493 46.5481Z" fill="#B7C5F2"/>
<path d="M413.656 7.62427H397.839V10.8345H413.656V7.62427Z" fill="#505D84"/>
<path d="M413.656 32.5034H397.839V35.7136H413.656V32.5034Z" fill="#505D84"/>
<path d="M434.218 46.5481H424.728C423.784 46.547 422.88 46.1662 422.212 45.4891C421.545 44.8121 421.17 43.8941 421.169 42.9366V3.61149C421.17 2.654 421.545 1.73604 422.212 1.05898C422.88 0.381933 423.784 0.00107908 424.728 0H434.218C435.161 0.00107908 436.066 0.381933 436.733 1.05898C437.4 1.73604 437.775 2.654 437.776 3.61149V42.9366C437.775 43.8941 437.4 44.8121 436.733 45.4891C436.066 46.1662 435.161 46.547 434.218 46.5481Z" fill="#B7C5F2"/>
<path d="M437.381 7.62427H421.564V10.8345H437.381V7.62427Z" fill="#505D84"/>
<path d="M437.381 32.5034H421.564V35.7136H437.381V32.5034Z" fill="#505D84"/>
<path d="M457.943 46.5481H448.453C447.509 46.547 446.605 46.1662 445.938 45.4891C445.27 44.8121 444.895 43.8941 444.894 42.9366V3.61149C444.895 2.654 445.27 1.73604 445.938 1.05898C446.605 0.381933 447.509 0.00107908 448.453 0H457.943C458.886 0.00107908 459.791 0.381933 460.458 1.05898C461.125 1.73604 461.501 2.654 461.502 3.61149V42.9366C461.501 43.8941 461.125 44.8121 460.458 45.4891C459.791 46.1662 458.886 46.547 457.943 46.5481Z" fill="#B7C5F2"/>
<path d="M461.106 7.62427H445.289V10.8345H461.106V7.62427Z" fill="#505D84"/>
<path d="M461.106 32.5034H445.289V35.7136H461.106V32.5034Z" fill="#505D84"/>
<path d="M481.668 46.5481H472.178C471.235 46.547 470.33 46.1662 469.663 45.4891C468.996 44.8121 468.62 43.8941 468.619 42.9366V3.61149C468.62 2.654 468.996 1.73604 469.663 1.05898C470.33 0.381933 471.235 0.00107908 472.178 0H481.668C482.612 0.00107908 483.516 0.381933 484.183 1.05898C484.851 1.73604 485.226 2.654 485.227 3.61149V42.9366C485.226 43.8941 484.851 44.8121 484.183 45.4891C483.516 46.1662 482.612 46.547 481.668 46.5481Z" fill="#B7C5F2"/>
<path d="M484.831 7.62427H469.015V10.8345H484.831V7.62427Z" fill="#505D84"/>
<path d="M484.831 32.5034H469.015V35.7136H484.831V32.5034Z" fill="#505D84"/>
<path d="M517.209 47.752H291.82C291.61 47.752 291.409 47.6674 291.261 47.5169C291.112 47.3664 291.029 47.1623 291.029 46.9494C291.029 46.7366 291.112 46.5324 291.261 46.3819C291.409 46.2314 291.61 46.1469 291.82 46.1469H517.209C517.419 46.1469 517.62 46.2314 517.768 46.3819C517.917 46.5324 518 46.7366 518 46.9494C518 47.1623 517.917 47.3664 517.768 47.5169C517.62 47.6674 517.419 47.752 517.209 47.752Z" fill="#C7C6CB"/>
<path d="M517.209 112.759H291.82C291.61 112.759 291.409 112.674 291.261 112.524C291.112 112.373 291.029 112.169 291.029 111.956C291.029 111.743 291.112 111.539 291.261 111.389C291.409 111.238 291.61 111.154 291.82 111.154H517.209C517.419 111.154 517.62 111.238 517.768 111.389C517.917 111.539 518 111.743 518 111.956C518 112.169 517.917 112.373 517.768 112.524C517.62 112.674 517.419 112.759 517.209 112.759Z" fill="#C7C6CB"/>
<path d="M517.209 177.766H291.82C291.61 177.766 291.409 177.681 291.261 177.531C291.112 177.38 291.029 177.176 291.029 176.963C291.029 176.75 291.112 176.546 291.261 176.396C291.409 176.245 291.61 176.161 291.82 176.161H517.209C517.419 176.161 517.62 176.245 517.768 176.396C517.917 176.546 518 176.75 518 176.963C518 177.176 517.917 177.38 517.768 177.531C517.62 177.681 517.419 177.766 517.209 177.766Z" fill="#C7C6CB"/>
<path d="M459.923 168.876C460.9 158.197 463.599 147.754 467.911 137.963C469.113 135.239 470.436 132.574 471.88 129.969C471.952 129.833 471.969 129.674 471.928 129.525C471.887 129.376 471.79 129.249 471.659 129.171C471.527 129.092 471.371 129.069 471.222 129.106C471.074 129.143 470.946 129.236 470.864 129.367C465.614 138.854 461.935 149.152 459.976 159.85C459.431 162.837 459.022 165.846 458.748 168.876C458.678 169.64 459.854 169.635 459.923 168.876Z" fill="#212F53" fill-opacity="0.85" style="mix-blend-mode:multiply"/>
<path d="M459.923 168.876C460.9 158.197 463.599 147.754 467.911 137.963C469.113 135.239 470.436 132.574 471.88 129.969C471.952 129.833 471.969 129.674 471.928 129.525C471.887 129.376 471.79 129.249 471.659 129.171C471.527 129.092 471.371 129.069 471.222 129.106C471.074 129.143 470.946 129.236 470.864 129.367C465.614 138.854 461.935 149.152 459.976 159.85C459.431 162.837 459.022 165.846 458.748 168.876C458.678 169.64 459.854 169.635 459.923 168.876Z" fill="url(#paint6_linear_6_508)" fill-opacity="0.7"/>
<path d="M459.923 168.876C460.9 158.197 463.599 147.754 467.911 137.963C469.113 135.239 470.436 132.574 471.88 129.969C471.952 129.833 471.969 129.674 471.928 129.525C471.887 129.376 471.79 129.249 471.659 129.171C471.527 129.092 471.371 129.069 471.222 129.106C471.074 129.143 470.946 129.236 470.864 129.367C465.614 138.854 461.935 149.152 459.976 159.85C459.431 162.837 459.022 165.846 458.748 168.876C458.678 169.64 459.854 169.635 459.923 168.876Z" fill="#0A1A3D" fill-opacity="0.4"/>
<path d="M474.727 131.883C478.839 131.883 482.172 128.5 482.172 124.327C482.172 120.154 478.839 116.772 474.727 116.772C470.615 116.772 467.281 120.154 467.281 124.327C467.281 128.5 470.615 131.883 474.727 131.883Z" fill="#212F53" fill-opacity="0.85" style="mix-blend-mode:multiply"/>
<path d="M474.727 131.883C478.839 131.883 482.172 128.5 482.172 124.327C482.172 120.154 478.839 116.772 474.727 116.772C470.615 116.772 467.281 120.154 467.281 124.327C467.281 128.5 470.615 131.883 474.727 131.883Z" fill="url(#paint7_linear_6_508)" fill-opacity="0.7"/>
<path d="M474.727 131.883C478.839 131.883 482.172 128.5 482.172 124.327C482.172 120.154 478.839 116.772 474.727 116.772C470.615 116.772 467.281 120.154 467.281 124.327C467.281 128.5 470.615 131.883 474.727 131.883Z" fill="#0A1A3D" fill-opacity="0.4"/>
<path d="M460.685 169.076C461.319 162.149 463.069 155.374 465.867 149.022C466.646 147.254 467.505 145.526 468.441 143.836C468.488 143.748 468.5 143.644 468.473 143.547C468.446 143.451 468.383 143.368 468.298 143.318C468.213 143.267 468.111 143.252 468.015 143.276C467.919 143.3 467.836 143.36 467.783 143.445C464.376 149.6 461.99 156.281 460.719 163.221C460.366 165.159 460.1 167.111 459.922 169.076C459.877 169.572 460.64 169.569 460.685 169.076Z" fill="#212F53" fill-opacity="0.85" style="mix-blend-mode:multiply"/>
<path d="M460.685 169.076C461.319 162.149 463.069 155.374 465.867 149.022C466.646 147.254 467.505 145.526 468.441 143.836C468.488 143.748 468.5 143.644 468.473 143.547C468.446 143.451 468.383 143.368 468.298 143.318C468.213 143.267 468.111 143.252 468.015 143.276C467.919 143.3 467.836 143.36 467.783 143.445C464.376 149.6 461.99 156.281 460.719 163.221C460.366 165.159 460.1 167.111 459.922 169.076C459.877 169.572 460.64 169.569 460.685 169.076Z" fill="url(#paint8_linear_6_508)" fill-opacity="0.7"/>
<path d="M460.685 169.076C461.319 162.149 463.069 155.374 465.867 149.022C466.646 147.254 467.505 145.526 468.441 143.836C468.488 143.748 468.5 143.644 468.473 143.547C468.446 143.451 468.383 143.368 468.298 143.318C468.213 143.267 468.111 143.252 468.015 143.276C467.919 143.3 467.836 143.36 467.783 143.445C464.376 149.6 461.99 156.281 460.719 163.221C460.366 165.159 460.1 167.111 459.922 169.076C459.877 169.572 460.64 169.569 460.685 169.076Z" fill="#0A1A3D" fill-opacity="0.4"/>
<path d="M470.289 145.077C472.956 145.077 475.119 142.883 475.119 140.176C475.119 137.468 472.956 135.274 470.289 135.274C467.621 135.274 465.458 137.468 465.458 140.176C465.458 142.883 467.621 145.077 470.289 145.077Z" fill="#212F53" fill-opacity="0.85" style="mix-blend-mode:multiply"/>
<path d="M470.289 145.077C472.956 145.077 475.119 142.883 475.119 140.176C475.119 137.468 472.956 135.274 470.289 135.274C467.621 135.274 465.458 137.468 465.458 140.176C465.458 142.883 467.621 145.077 470.289 145.077Z" fill="url(#paint9_linear_6_508)" fill-opacity="0.7"/>
<path d="M470.289 145.077C472.956 145.077 475.119 142.883 475.119 140.176C475.119 137.468 472.956 135.274 470.289 135.274C467.621 135.274 465.458 137.468 465.458 140.176C465.458 142.883 467.621 145.077 470.289 145.077Z" fill="#0A1A3D" fill-opacity="0.4"/>
<path d="M459.722 168.614C456.023 162.756 453.297 156.321 451.654 149.567C451.197 147.686 450.826 145.788 450.54 143.871C450.524 143.772 450.47 143.683 450.39 143.623C450.311 143.564 450.211 143.538 450.113 143.551C450.015 143.565 449.926 143.616 449.865 143.695C449.803 143.774 449.775 143.874 449.784 143.974C450.829 150.953 452.996 157.71 456.201 163.975C457.096 165.724 458.07 167.429 459.121 169.09C459.386 169.509 459.985 169.03 459.722 168.614Z" fill="#212F53" fill-opacity="0.85" style="mix-blend-mode:multiply"/>
<path d="M459.722 168.614C456.023 162.756 453.297 156.321 451.654 149.567C451.197 147.686 450.826 145.788 450.54 143.871C450.524 143.772 450.47 143.683 450.39 143.623C450.311 143.564 450.211 143.538 450.113 143.551C450.015 143.565 449.926 143.616 449.865 143.695C449.803 143.774 449.775 143.874 449.784 143.974C450.829 150.953 452.996 157.71 456.201 163.975C457.096 165.724 458.07 167.429 459.121 169.09C459.386 169.509 459.985 169.03 459.722 168.614Z" fill="url(#paint10_linear_6_508)" fill-opacity="0.7"/>
<path d="M459.722 168.614C456.023 162.756 453.297 156.321 451.654 149.567C451.197 147.686 450.826 145.788 450.54 143.871C450.524 143.772 450.47 143.683 450.39 143.623C450.311 143.564 450.211 143.538 450.113 143.551C450.015 143.565 449.926 143.616 449.865 143.695C449.803 143.774 449.775 143.874 449.784 143.974C450.829 150.953 452.996 157.71 456.201 163.975C457.096 165.724 458.07 167.429 459.121 169.09C459.386 169.509 459.985 169.03 459.722 168.614Z" fill="#0A1A3D" fill-opacity="0.4"/>
<path d="M449.778 144.733C452.446 144.733 454.608 142.539 454.608 139.832C454.608 137.124 452.446 134.93 449.778 134.93C447.111 134.93 444.948 137.124 444.948 139.832C444.948 142.539 447.111 144.733 449.778 144.733Z" fill="#212F53" fill-opacity="0.85" style="mix-blend-mode:multiply"/>
<path d="M449.778 144.733C452.446 144.733 454.608 142.539 454.608 139.832C454.608 137.124 452.446 134.93 449.778 134.93C447.111 134.93 444.948 137.124 444.948 139.832C444.948 142.539 447.111 144.733 449.778 144.733Z" fill="url(#paint11_linear_6_508)" fill-opacity="0.7"/>
<path d="M449.778 144.733C452.446 144.733 454.608 142.539 454.608 139.832C454.608 137.124 452.446 134.93 449.778 134.93C447.111 134.93 444.948 137.124 444.948 139.832C444.948 142.539 447.111 144.733 449.778 144.733Z" fill="#0A1A3D" fill-opacity="0.4"/>
<path d="M444.894 172.95V163.32C444.895 162.362 445.27 161.444 445.938 160.767C446.605 160.09 447.509 159.709 448.453 159.708H470.596C471.54 159.709 472.444 160.09 473.112 160.767C473.779 161.444 474.154 162.362 474.155 163.32V172.95C474.154 173.908 473.779 174.826 473.112 175.503C472.444 176.18 471.54 176.561 470.596 176.562H448.453C447.509 176.561 446.605 176.18 445.938 175.503C445.27 174.826 444.895 173.908 444.894 172.95Z" fill="#B7C5F2"/>
<path d="M302.101 291.728H0.79084C0.581096 291.728 0.379954 291.644 0.231643 291.493C0.0833318 291.343 0 291.139 0 290.926C0 290.713 0.0833318 290.509 0.231643 290.358C0.379954 290.208 0.581096 290.123 0.79084 290.123H302.101C302.31 290.123 302.512 290.208 302.66 290.358C302.808 290.509 302.892 290.713 302.892 290.926C302.892 291.139 302.808 291.343 302.66 291.493C302.512 291.644 302.31 291.728 302.101 291.728Z" fill="#3F3D56"/>
<path d="M157.424 186.594C169.217 186.594 178.776 176.892 178.776 164.925C178.776 152.957 169.217 143.256 157.424 143.256C145.631 143.256 136.071 152.957 136.071 164.925C136.071 176.892 145.631 186.594 157.424 186.594Z" fill="#0A1A3D"/>
<path d="M137.136 304.028L136.57 294.207L173.634 287.317L174.469 301.814L137.136 304.028Z" fill="#FFDAD3"/>
<path d="M138.931 287.026L140.022 305.969L128.269 306.666L126.491 275.796C128.034 275.705 129.581 275.922 131.041 276.437C132.502 276.952 133.848 277.754 135.003 278.797C136.158 279.839 137.1 281.103 137.774 282.515C138.448 283.927 138.841 285.46 138.931 287.026Z" fill="#0A1A3D"/>
<path d="M153.256 303.938L147.099 311.539L115.279 291.059L124.365 279.841L153.256 303.938Z" fill="#FFDAD3"/>
<path d="M140.562 315.184L152.435 300.524L161.53 308.111L142.181 332C140.987 331.004 139.998 329.778 139.27 328.394C138.542 327.01 138.09 325.494 137.94 323.932C137.789 322.371 137.944 320.794 138.393 319.293C138.843 317.792 139.58 316.396 140.562 315.184Z" fill="#0A1A3D"/>
<path d="M135.539 268.591L131.332 288.718C131.235 289.181 131.241 289.661 131.348 290.122C131.455 290.583 131.662 291.014 131.953 291.384C132.244 291.755 132.612 292.056 133.031 292.265C133.45 292.474 133.909 292.586 134.376 292.594L175.735 293.271C176.201 293.278 176.663 293.181 177.088 292.986C177.513 292.792 177.89 292.504 178.193 292.144C178.495 291.784 178.716 291.36 178.838 290.904C178.961 290.447 178.982 289.969 178.901 289.503L175.284 268.699C175.154 267.956 174.771 267.282 174.201 266.797C173.632 266.312 172.912 266.047 172.168 266.047H138.634C137.909 266.047 137.206 266.299 136.643 266.762C136.079 267.225 135.69 267.871 135.539 268.591Z" fill="#0A1A3D"/>
<path d="M142.398 275.677C142.398 275.677 102.065 249.995 94.1566 263.639C90.2024 270.461 92.1795 277.082 95.1452 281.997C97.8973 286.473 101.848 290.061 106.535 292.343L139.235 308.582L151.097 295.741L143.189 288.518L142.398 275.677Z" fill="#0A1A3D"/>
<path d="M162.96 271.664C162.96 271.664 215.155 256.416 204.874 285.308C194.593 314.2 155.842 302.964 155.842 302.964L151.888 290.926L165.332 281.295L162.96 271.664Z" fill="#0A1A3D"/>
<path d="M157.692 189.584C168.419 189.584 177.115 180.759 177.115 169.873C177.115 158.986 168.419 150.161 157.692 150.161C146.964 150.161 138.268 158.986 138.268 169.873C138.268 180.759 146.964 189.584 157.692 189.584Z" fill="#FFDAD3"/>
<path d="M158.709 274.85C150.638 274.726 142.608 273.652 134.781 271.65L134.549 271.586L123.711 220.989C122.736 216.543 123.398 211.888 125.574 207.905C127.75 203.921 131.288 200.883 135.52 199.366C148.593 194.606 162.841 194.317 176.09 198.544H176.09C180.536 199.997 184.278 203.099 186.57 207.229C188.862 211.359 189.535 216.215 188.455 220.826L176.348 271.544L176.178 271.626C171.147 274.045 164.855 274.85 158.709 274.85Z" fill="#C7C6CB"/>
<path d="M144.15 278.78C144.543 277.67 145.172 276.661 145.992 275.824C146.811 274.987 147.801 274.343 148.893 273.936C149.984 273.53 151.15 273.371 152.309 273.471C153.467 273.572 154.59 273.928 155.598 274.517L176.94 255.717L178.87 270.491L158.308 286.078C157.222 287.731 155.576 288.922 153.683 289.426C151.789 289.929 149.78 289.71 148.034 288.811C146.289 287.911 144.93 286.393 144.214 284.545C143.498 282.696 143.475 280.645 144.15 278.78Z" fill="#FFDAD3"/>
<path d="M164.504 282.881C164.157 282.88 163.812 282.829 163.479 282.728C162.939 282.568 162.445 282.28 162.037 281.887C161.629 281.493 161.321 281.007 161.136 280.467L158.56 273.061C158.319 272.377 158.288 271.634 158.472 270.931C158.656 270.229 159.046 269.599 159.59 269.127L188.668 251.411L177.206 199.517L177.497 199.446C177.616 199.416 189.36 196.703 194.173 209.727C197.543 218.848 210.014 238.681 209.135 252.083C208.967 254.763 207.915 257.309 206.147 259.308C204.379 261.307 201.998 262.643 199.39 263.1L166.658 282.131C166.042 282.616 165.284 282.879 164.504 282.881Z" fill="#C7C6CB"/>
<path d="M167.766 277.02C167.372 275.909 166.743 274.9 165.924 274.063C165.104 273.227 164.114 272.582 163.023 272.176C161.931 271.769 160.765 271.611 159.607 271.711C158.448 271.811 157.326 272.168 156.318 272.756L134.976 253.957L133.045 268.731L153.608 284.318C154.694 285.971 156.339 287.162 158.233 287.665C160.126 288.169 162.136 287.95 163.881 287.05C165.626 286.151 166.986 284.633 167.701 282.784C168.417 280.935 168.44 278.884 167.766 277.02Z" fill="#FFDAD3"/>
<path d="M149.552 282.881C148.772 282.879 148.015 282.616 147.398 282.13L112.294 264.705C109.686 264.248 107.306 262.912 105.538 260.913C103.769 258.914 102.717 256.368 102.55 253.688C101.67 240.286 116.514 218.848 119.884 209.727C124.696 196.703 136.441 199.415 136.559 199.446L136.851 199.517L123.016 253.016L154.467 269.127C155.011 269.599 155.401 270.229 155.584 270.931C155.768 271.634 155.738 272.377 155.497 273.061L152.92 280.467C152.736 281.007 152.427 281.493 152.02 281.887C151.612 282.28 151.118 282.568 150.578 282.728C150.245 282.829 149.9 282.88 149.552 282.881Z" fill="#C7C6CB"/>
<path d="M191.43 290.926H121.045C119.578 290.924 118.17 290.331 117.133 289.278C116.095 288.225 115.511 286.797 115.509 285.308V245.983C115.511 244.493 116.095 243.065 117.133 242.012C118.17 240.959 119.578 240.366 121.045 240.365H191.43C192.898 240.366 194.305 240.959 195.343 242.012C196.38 243.065 196.964 244.493 196.966 245.983V285.308C196.964 286.797 196.38 288.225 195.342 289.278C194.305 290.331 192.898 290.924 191.43 290.926Z" fill="url(#paint12_radial_6_508)"/>
<path d="M191.43 290.926H121.045C119.578 290.924 118.17 290.331 117.133 289.278C116.095 288.225 115.511 286.797 115.509 285.308V245.983C115.511 244.493 116.095 243.065 117.133 242.012C118.17 240.959 119.578 240.366 121.045 240.365H191.43C192.898 240.366 194.305 240.959 195.343 242.012C196.38 243.065 196.964 244.493 196.966 245.983V285.308C196.964 286.797 196.38 288.225 195.342 289.278C194.305 290.331 192.898 290.924 191.43 290.926Z" fill="#38466B" fill-opacity="0.3"/>
<path d="M156.238 270.461C158.858 270.461 160.983 268.305 160.983 265.645C160.983 262.986 158.858 260.83 156.238 260.83C153.617 260.83 151.492 262.986 151.492 265.645C151.492 268.305 153.617 270.461 156.238 270.461Z" fill="#FAF8FF"/>
<path d="M138.073 169.071C136.922 166.107 138.811 162.576 141.613 161.141C144.415 159.705 147.796 159.978 150.793 160.924C153.312 161.719 155.672 162.951 158.13 163.924C160.552 165.014 163.198 165.492 165.842 165.318C168.464 165.018 171.072 163.526 172.145 161.081C173.256 158.546 172.5 155.452 170.788 153.289C168.967 151.198 166.609 149.66 163.978 148.847C158.199 146.781 151.523 146.721 146.158 149.724C140.793 152.727 137.147 159.122 138.256 165.237" fill="#0A1A3D"/>
<path d="M25.8308 282.353C26.8078 271.675 29.5064 261.232 33.8187 251.441C35.0205 248.716 36.3434 246.052 37.7872 243.447C37.8596 243.311 37.8771 243.151 37.8359 243.002C37.7947 242.853 37.698 242.726 37.5663 242.648C37.4347 242.57 37.2782 242.547 37.1301 242.584C36.9819 242.62 36.8536 242.714 36.7721 242.845C31.5215 252.332 27.8431 262.63 25.884 273.328C25.339 276.315 24.9294 279.324 24.6552 282.353C24.5855 283.117 25.7615 283.113 25.8308 282.353Z" fill="#212F53" fill-opacity="0.85" style="mix-blend-mode:multiply"/>
<path d="M25.8308 282.353C26.8078 271.675 29.5064 261.232 33.8187 251.441C35.0205 248.716 36.3434 246.052 37.7872 243.447C37.8596 243.311 37.8771 243.151 37.8359 243.002C37.7947 242.853 37.698 242.726 37.5663 242.648C37.4347 242.57 37.2782 242.547 37.1301 242.584C36.9819 242.62 36.8536 242.714 36.7721 242.845C31.5215 252.332 27.8431 262.63 25.884 273.328C25.339 276.315 24.9294 279.324 24.6552 282.353C24.5855 283.117 25.7615 283.113 25.8308 282.353Z" fill="url(#paint13_linear_6_508)" fill-opacity="0.7"/>
<path d="M25.8308 282.353C26.8078 271.675 29.5064 261.232 33.8187 251.441C35.0205 248.716 36.3434 246.052 37.7872 243.447C37.8596 243.311 37.8771 243.151 37.8359 243.002C37.7947 242.853 37.698 242.726 37.5663 242.648C37.4347 242.57 37.2782 242.547 37.1301 242.584C36.9819 242.62 36.8536 242.714 36.7721 242.845C31.5215 252.332 27.8431 262.63 25.884 273.328C25.339 276.315 24.9294 279.324 24.6552 282.353C24.5855 283.117 25.7615 283.113 25.8308 282.353Z" fill="#0A1A3D" fill-opacity="0.4"/>
<path d="M40.6345 245.36C44.7464 245.36 48.0798 241.978 48.0798 237.805C48.0798 233.632 44.7464 230.249 40.6345 230.249C36.5226 230.249 33.1892 233.632 33.1892 237.805C33.1892 241.978 36.5226 245.36 40.6345 245.36Z" fill="#212F53" fill-opacity="0.85" style="mix-blend-mode:multiply"/>
<path d="M40.6345 245.36C44.7464 245.36 48.0798 241.978 48.0798 237.805C48.0798 233.632 44.7464 230.249 40.6345 230.249C36.5226 230.249 33.1892 233.632 33.1892 237.805C33.1892 241.978 36.5226 245.36 40.6345 245.36Z" fill="url(#paint14_linear_6_508)" fill-opacity="0.7"/>
<path d="M40.6345 245.36C44.7464 245.36 48.0798 241.978 48.0798 237.805C48.0798 233.632 44.7464 230.249 40.6345 230.249C36.5226 230.249 33.1892 233.632 33.1892 237.805C33.1892 241.978 36.5226 245.36 40.6345 245.36Z" fill="#0A1A3D" fill-opacity="0.4"/>
<path d="M26.5924 282.554C27.2262 275.626 28.9769 268.851 31.7745 262.5C32.5542 260.732 33.4124 259.003 34.3491 257.314C34.396 257.225 34.4073 257.122 34.3806 257.025C34.3539 256.928 34.2912 256.846 34.2058 256.795C34.1203 256.745 34.0189 256.73 33.9228 256.754C33.8266 256.777 33.7434 256.838 33.6906 256.923C30.2843 263.078 27.8979 269.759 26.6269 276.699C26.2734 278.637 26.0076 280.588 25.8298 282.554C25.7845 283.05 26.5475 283.047 26.5924 282.554H26.5924Z" fill="#212F53" fill-opacity="0.85" style="mix-blend-mode:multiply"/>
<path d="M26.5924 282.554C27.2262 275.626 28.9769 268.851 31.7745 262.5C32.5542 260.732 33.4124 259.003 34.3491 257.314C34.396 257.225 34.4073 257.122 34.3806 257.025C34.3539 256.928 34.2912 256.846 34.2058 256.795C34.1203 256.745 34.0189 256.73 33.9228 256.754C33.8266 256.777 33.7434 256.838 33.6906 256.923C30.2843 263.078 27.8979 269.759 26.6269 276.699C26.2734 278.637 26.0076 280.588 25.8298 282.554C25.7845 283.05 26.5475 283.047 26.5924 282.554H26.5924Z" fill="url(#paint15_linear_6_508)" fill-opacity="0.7"/>
<path d="M26.5924 282.554C27.2262 275.626 28.9769 268.851 31.7745 262.5C32.5542 260.732 33.4124 259.003 34.3491 257.314C34.396 257.225 34.4073 257.122 34.3806 257.025C34.3539 256.928 34.2912 256.846 34.2058 256.795C34.1203 256.745 34.0189 256.73 33.9228 256.754C33.8266 256.777 33.7434 256.838 33.6906 256.923C30.2843 263.078 27.8979 269.759 26.6269 276.699C26.2734 278.637 26.0076 280.588 25.8298 282.554C25.7845 283.05 26.5475 283.047 26.5924 282.554H26.5924Z" fill="#0A1A3D" fill-opacity="0.4"/>
<path d="M36.1962 258.555C38.8638 258.555 41.0263 256.36 41.0263 253.653C41.0263 250.946 38.8638 248.752 36.1962 248.752C33.5286 248.752 31.3661 250.946 31.3661 253.653C31.3661 256.36 33.5286 258.555 36.1962 258.555Z" fill="#212F53" fill-opacity="0.85" style="mix-blend-mode:multiply"/>
<path d="M36.1962 258.555C38.8638 258.555 41.0263 256.36 41.0263 253.653C41.0263 250.946 38.8638 248.752 36.1962 248.752C33.5286 248.752 31.3661 250.946 31.3661 253.653C31.3661 256.36 33.5286 258.555 36.1962 258.555Z" fill="url(#paint16_linear_6_508)" fill-opacity="0.7"/>
<path d="M36.1962 258.555C38.8638 258.555 41.0263 256.36 41.0263 253.653C41.0263 250.946 38.8638 248.752 36.1962 248.752C33.5286 248.752 31.3661 250.946 31.3661 253.653C31.3661 256.36 33.5286 258.555 36.1962 258.555Z" fill="#0A1A3D" fill-opacity="0.4"/>
<path d="M25.6298 282.091C21.9309 276.233 19.2052 269.799 17.5613 263.044C17.1048 261.164 16.7337 259.265 16.4481 257.348C16.4316 257.249 16.3779 257.161 16.2982 257.101C16.2185 257.041 16.1191 257.016 16.0211 257.029C15.923 257.042 15.8339 257.094 15.7725 257.173C15.7111 257.251 15.6823 257.351 15.6921 257.451C16.7365 264.43 18.9041 271.187 22.1083 277.453C23.0041 279.202 23.9775 280.906 25.0285 282.567C25.2933 282.986 25.8929 282.508 25.6298 282.091Z" fill="#212F53" fill-opacity="0.85" style="mix-blend-mode:multiply"/>
<path d="M25.6298 282.091C21.9309 276.233 19.2052 269.799 17.5613 263.044C17.1048 261.164 16.7337 259.265 16.4481 257.348C16.4316 257.249 16.3779 257.161 16.2982 257.101C16.2185 257.041 16.1191 257.016 16.0211 257.029C15.923 257.042 15.8339 257.094 15.7725 257.173C15.7111 257.251 15.6823 257.351 15.6921 257.451C16.7365 264.43 18.9041 271.187 22.1083 277.453C23.0041 279.202 23.9775 280.906 25.0285 282.567C25.2933 282.986 25.8929 282.508 25.6298 282.091Z" fill="url(#paint17_linear_6_508)" fill-opacity="0.7"/>
<path d="M25.6298 282.091C21.9309 276.233 19.2052 269.799 17.5613 263.044C17.1048 261.164 16.7337 259.265 16.4481 257.348C16.4316 257.249 16.3779 257.161 16.2982 257.101C16.2185 257.041 16.1191 257.016 16.0211 257.029C15.923 257.042 15.8339 257.094 15.7725 257.173C15.7111 257.251 15.6823 257.351 15.6921 257.451C16.7365 264.43 18.9041 271.187 22.1083 277.453C23.0041 279.202 23.9775 280.906 25.0285 282.567C25.2933 282.986 25.8929 282.508 25.6298 282.091Z" fill="#0A1A3D" fill-opacity="0.4"/>
<path d="M15.6861 258.211C18.3536 258.211 20.5162 256.016 20.5162 253.309C20.5162 250.602 18.3536 248.407 15.6861 248.407C13.0185 248.407 10.856 250.602 10.856 253.309C10.856 256.016 13.0185 258.211 15.6861 258.211Z" fill="#212F53" fill-opacity="0.85" style="mix-blend-mode:multiply"/>
<path d="M15.6861 258.211C18.3536 258.211 20.5162 256.016 20.5162 253.309C20.5162 250.602 18.3536 248.407 15.6861 248.407C13.0185 248.407 10.856 250.602 10.856 253.309C10.856 256.016 13.0185 258.211 15.6861 258.211Z" fill="url(#paint18_linear_6_508)" fill-opacity="0.7"/>
<path d="M15.6861 258.211C18.3536 258.211 20.5162 256.016 20.5162 253.309C20.5162 250.602 18.3536 248.407 15.6861 248.407C13.0185 248.407 10.856 250.602 10.856 253.309C10.856 256.016 13.0185 258.211 15.6861 258.211Z" fill="#0A1A3D" fill-opacity="0.4"/>
<path d="M10.8018 286.428V276.797C10.8028 275.84 11.1781 274.922 11.8453 274.245C12.5125 273.568 13.417 273.187 14.3605 273.186H36.504C37.4476 273.187 38.3521 273.568 39.0193 274.245C39.6865 274.922 40.0618 275.84 40.0628 276.797V286.428C40.0618 287.385 39.6865 288.303 39.0193 288.98C38.3521 289.657 37.4476 290.038 36.504 290.039H14.3605C13.417 290.038 12.5125 289.657 11.8453 288.98C11.1781 288.303 10.8028 287.385 10.8018 286.428Z" fill="#B7C5F2"/>
<path d="M248.647 297.668C248.647 302.946 244.43 305.345 239.229 305.345C234.028 305.345 229.811 302.946 229.811 297.668C229.811 292.389 231.904 286.23 239.229 288.354C246.554 285.168 248.647 292.389 248.647 297.668Z" fill="#FF6584"/>
<path d="M238.77 290.827C238.404 290.827 238.05 290.693 237.775 290.448C237.5 290.202 237.322 289.864 237.275 289.495C236.963 286.862 235.244 281.704 234.52 279.609L234.519 279.608C234.446 279.4 234.424 279.177 234.454 278.958C234.484 278.739 234.567 278.531 234.694 278.351C234.815 278.191 234.969 278.058 235.144 277.962C235.32 277.866 235.514 277.809 235.713 277.794C235.912 277.78 236.111 277.808 236.299 277.877C236.486 277.947 236.657 278.056 236.8 278.197C236.928 278.333 237.026 278.494 237.09 278.67C237.154 278.846 237.181 279.034 237.17 279.221C237.028 281.91 238.96 286.255 240.124 288.607C240.234 288.828 240.289 289.074 240.285 289.322C240.281 289.57 240.217 289.813 240.099 290.031C239.982 290.248 239.814 290.434 239.61 290.571C239.407 290.708 239.173 290.793 238.93 290.818C238.877 290.824 238.824 290.827 238.77 290.827Z" fill="#3F3D56"/>
<path d="M245.739 284.895C249.008 282.179 246.443 276.622 242.352 277.689C241.801 277.823 241.294 278.097 240.878 278.487C238.368 280.893 237.979 287.05 237.979 287.05C237.979 287.05 242.411 287.659 245.739 284.895Z" fill="#3F3D56"/>
</g>
<defs>
<linearGradient id="paint0_linear_6_508" x1="327.95" y1="59.2243" x2="352.61" y2="62.7575" gradientUnits="userSpaceOnUse">
<stop stop-color="#505D84"/>
<stop offset="0.34496" stop-color="#38466B"/>
<stop offset="0.556043" stop-color="#212F53"/>
<stop offset="1" stop-color="#0A1A3D"/>
</linearGradient>
<linearGradient id="paint1_linear_6_508" x1="336.448" y1="49.9458" x2="360.372" y2="60.2684" gradientUnits="userSpaceOnUse">
<stop stop-color="#505D84"/>
<stop offset="0.34496" stop-color="#38466B"/>
<stop offset="0.556043" stop-color="#212F53"/>
<stop offset="1" stop-color="#0A1A3D"/>
</linearGradient>
<linearGradient id="paint2_linear_6_508" x1="329.233" y1="75.1065" x2="345.231" y2="77.3987" gradientUnits="userSpaceOnUse">
<stop stop-color="#505D84"/>
<stop offset="0.34496" stop-color="#38466B"/>
<stop offset="0.556043" stop-color="#212F53"/>
<stop offset="1" stop-color="#0A1A3D"/>
</linearGradient>
<linearGradient id="paint3_linear_6_508" x1="334.746" y1="69.0871" x2="350.266" y2="75.7838" gradientUnits="userSpaceOnUse">
<stop stop-color="#505D84"/>
<stop offset="0.34496" stop-color="#38466B"/>
<stop offset="0.556043" stop-color="#212F53"/>
<stop offset="1" stop-color="#0A1A3D"/>
</linearGradient>
<linearGradient id="paint4_linear_6_508" x1="319.062" y1="75.4471" x2="337.591" y2="78.6051" gradientUnits="userSpaceOnUse">
<stop stop-color="#505D84"/>
<stop offset="0.34496" stop-color="#38466B"/>
<stop offset="0.556043" stop-color="#212F53"/>
<stop offset="1" stop-color="#0A1A3D"/>
</linearGradient>
<linearGradient id="paint5_linear_6_508" x1="314.236" y1="68.743" x2="329.756" y2="75.4398" gradientUnits="userSpaceOnUse">
<stop stop-color="#505D84"/>
<stop offset="0.34496" stop-color="#38466B"/>
<stop offset="0.556043" stop-color="#212F53"/>
<stop offset="1" stop-color="#0A1A3D"/>
</linearGradient>
<linearGradient id="paint6_linear_6_508" x1="458.439" y1="124.231" x2="483.099" y2="127.764" gradientUnits="userSpaceOnUse">
<stop stop-color="#505D84"/>
<stop offset="0.34496" stop-color="#38466B"/>
<stop offset="0.556043" stop-color="#212F53"/>
<stop offset="1" stop-color="#0A1A3D"/>
</linearGradient>
<linearGradient id="paint7_linear_6_508" x1="466.937" y1="114.953" x2="490.86" y2="125.275" gradientUnits="userSpaceOnUse">
<stop stop-color="#505D84"/>
<stop offset="0.34496" stop-color="#38466B"/>
<stop offset="0.556043" stop-color="#212F53"/>
<stop offset="1" stop-color="#0A1A3D"/>
</linearGradient>
<linearGradient id="paint8_linear_6_508" x1="459.722" y1="140.113" x2="475.72" y2="142.406" gradientUnits="userSpaceOnUse">
<stop stop-color="#505D84"/>
<stop offset="0.34496" stop-color="#38466B"/>
<stop offset="0.556043" stop-color="#212F53"/>
<stop offset="1" stop-color="#0A1A3D"/>
</linearGradient>
<linearGradient id="paint9_linear_6_508" x1="465.235" y1="134.094" x2="480.755" y2="140.791" gradientUnits="userSpaceOnUse">
<stop stop-color="#505D84"/>
<stop offset="0.34496" stop-color="#38466B"/>
<stop offset="0.556043" stop-color="#212F53"/>
<stop offset="1" stop-color="#0A1A3D"/>
</linearGradient>
<linearGradient id="paint10_linear_6_508" x1="449.551" y1="140.454" x2="468.079" y2="143.612" gradientUnits="userSpaceOnUse">
<stop stop-color="#505D84"/>
<stop offset="0.34496" stop-color="#38466B"/>
<stop offset="0.556043" stop-color="#212F53"/>
<stop offset="1" stop-color="#0A1A3D"/>
</linearGradient>
<linearGradient id="paint11_linear_6_508" x1="444.725" y1="133.75" x2="460.245" y2="140.447" gradientUnits="userSpaceOnUse">
<stop stop-color="#505D84"/>
<stop offset="0.34496" stop-color="#38466B"/>
<stop offset="0.556043" stop-color="#212F53"/>
<stop offset="1" stop-color="#0A1A3D"/>
</linearGradient>
<radialGradient id="paint12_radial_6_508" cx="0" cy="0" r="1" gradientUnits="userSpaceOnUse" gradientTransform="translate(156.238 265.645) rotate(90) scale(25.2804 40.7282)">
<stop stop-color="#38466B"/>
<stop offset="0.8125" stop-color="#212F53"/>
</radialGradient>
<linearGradient id="paint13_linear_6_508" x1="24.3465" y1="237.709" x2="49.0065" y2="241.242" gradientUnits="userSpaceOnUse">
<stop stop-color="#505D84"/>
<stop offset="0.34496" stop-color="#38466B"/>
<stop offset="0.556043" stop-color="#212F53"/>
<stop offset="1" stop-color="#0A1A3D"/>
</linearGradient>
<linearGradient id="paint14_linear_6_508" x1="32.8445" y1="228.43" x2="56.7679" y2="238.753" gradientUnits="userSpaceOnUse">
<stop stop-color="#505D84"/>
<stop offset="0.34496" stop-color="#38466B"/>
<stop offset="0.556043" stop-color="#212F53"/>
<stop offset="1" stop-color="#0A1A3D"/>
</linearGradient>
<linearGradient id="paint15_linear_6_508" x1="25.6295" y1="253.591" x2="41.6275" y2="255.883" gradientUnits="userSpaceOnUse">
<stop stop-color="#505D84"/>
<stop offset="0.34496" stop-color="#38466B"/>
<stop offset="0.556043" stop-color="#212F53"/>
<stop offset="1" stop-color="#0A1A3D"/>
</linearGradient>
<linearGradient id="paint16_linear_6_508" x1="31.1425" y1="247.572" x2="46.6627" y2="254.268" gradientUnits="userSpaceOnUse">
<stop stop-color="#505D84"/>
<stop offset="0.34496" stop-color="#38466B"/>
<stop offset="0.556043" stop-color="#212F53"/>
<stop offset="1" stop-color="#0A1A3D"/>
</linearGradient>
<linearGradient id="paint17_linear_6_508" x1="15.4587" y1="253.932" x2="33.987" y2="257.09" gradientUnits="userSpaceOnUse">
<stop stop-color="#505D84"/>
<stop offset="0.34496" stop-color="#38466B"/>
<stop offset="0.556043" stop-color="#212F53"/>
<stop offset="1" stop-color="#0A1A3D"/>
</linearGradient>
<linearGradient id="paint18_linear_6_508" x1="10.6323" y1="247.227" x2="26.1526" y2="253.924" gradientUnits="userSpaceOnUse">
<stop stop-color="#505D84"/>
<stop offset="0.34496" stop-color="#38466B"/>
<stop offset="0.556043" stop-color="#212F53"/>
<stop offset="1" stop-color="#0A1A3D"/>
</linearGradient>
<clipPath id="clip0_6_508">
<rect width="518" height="332" fill="white"/>
</clipPath>
</defs>
</svg>
